<svg xmlns="http://www.w3.org/2000/svg" width="2204" height="476" viewBox="0 0 2204 476">
<g>
<path d="M 1878.38 304.00 L 1856.29 371.50 L 1843.22 371.78 L 1830.15 372.06 L 1827.38 368.42 L 1824.60 364.79 L 1850.55 287.66 C1864.82,245.24 1884.60,186.45 1894.50,157.02 L 1912.50 103.50 L 1966.31 103.50 L 1975.24 130.00 C1980.16,144.57 1999.90,203.27 2019.11,260.42 L 2054.04 364.35 L 2051.48 368.20 L 2048.93 372.06 L 2035.74 371.78 L 2022.54 371.50 L 2000.53 304.00 ZM 2116.00 102.71 L 2116.00 373.00 L 2098.97 373.00 C2086.19,373.00 2081.82,372.69 2081.45,371.74 C2081.19,371.05 2081.09,312.41 2081.24,241.45 C2081.48,120.11 2081.61,112.25 2083.26,109.72 C2086.62,104.60 2089.02,103.81 2103.00,103.24 ZM 1908.43 212.75 L 1888.24 274.00 L 1939.12 274.00 C1970.64,274.00 1990.00,273.64 1990.00,273.05 C1990.00,272.53 1982.83,250.36 1974.06,223.80 C1965.29,197.23 1955.03,166.05 1951.26,154.50 L 1944.40 133.50 L 1934.67 133.50 L 1931.65 142.50 C1929.99,147.45 1919.54,179.06 1908.43,212.75 Z" fill="rgb(0,0,0)"/>
<path d="M 246.18 359.05 C233.92,361.15 209.14,361.56 197.35,359.87 C164.39,355.13 135.03,339.11 116.38,315.68 C98.67,293.44 89.31,268.20 88.27,239.92 C86.77,198.82 97.42,170.32 124.37,143.37 C143.83,123.91 162.76,113.71 190.31,107.84 C204.92,104.73 233.04,104.72 247.60,107.82 C267.39,112.04 282.58,118.43 297.50,128.81 C306.83,135.31 325.00,153.32 325.00,156.08 C325.00,157.29 321.96,160.21 316.52,164.23 C311.86,167.68 308.03,170.79 308.02,171.15 C308.01,171.50 310.53,175.90 313.62,180.93 C318.49,188.85 319.52,189.97 321.37,189.40 C324.70,188.36 328.82,185.14 329.49,183.03 C330.15,180.96 338.35,173.49 352.50,162.08 C357.45,158.09 365.15,151.52 369.61,147.47 L 377.71 140.11 L 385.52 122.55 C389.81,112.90 393.14,104.85 392.91,104.68 C392.69,104.50 389.11,103.65 384.96,102.77 C374.43,100.56 363.12,96.00 352.00,89.47 C346.77,86.41 340.48,83.01 338.00,81.93 C327.79,77.44 324.86,75.48 316.67,67.68 C307.21,58.66 305.79,55.76 308.27,50.55 C310.65,45.58 315.67,43.66 324.90,44.22 C333.50,44.73 340.35,47.64 348.00,54.02 C372.03,74.05 429.67,87.00 468.61,81.13 C479.09,79.54 483.96,80.49 486.67,84.62 C488.86,87.96 487.93,96.23 484.63,102.73 C481.23,109.46 477.28,111.02 461.97,111.74 C447.65,112.40 433.05,110.75 424.38,107.49 C420.74,106.12 417.31,105.00 416.76,105.00 C416.21,105.00 418.74,108.16 422.39,112.03 C427.65,117.60 430.19,121.49 434.64,130.78 C437.73,137.23 441.65,144.26 443.34,146.41 C446.09,149.90 446.48,151.26 446.97,158.91 C447.27,163.64 447.87,168.06 448.31,168.75 C448.76,169.44 451.00,170.00 453.31,170.00 C466.65,170.01 487.13,174.50 497.31,179.65 C517.68,189.96 534.81,208.65 542.41,228.88 C563.25,284.37 532.74,344.66 477.24,357.68 C466.08,360.30 441.48,360.05 430.91,357.20 C380.72,343.71 351.37,292.14 364.48,240.47 C368.98,222.74 377.99,207.90 392.73,193.95 C404.03,183.26 417.14,176.13 431.34,172.95 C434.45,172.25 437.00,171.41 437.00,171.08 C437.00,166.98 430.33,142.62 427.88,137.76 C424.79,131.64 407.82,110.79 405.44,110.20 C404.74,110.02 403.08,113.15 401.45,117.70 C399.92,121.99 397.83,127.75 396.81,130.50 C395.55,133.90 392.12,138.63 386.13,145.27 C381.29,150.64 375.78,157.75 373.91,161.07 C368.54,170.58 367.49,171.59 358.57,175.91 C351.56,179.30 349.04,181.23 343.44,187.46 C337.87,193.65 335.68,195.33 330.61,197.27 C324.74,199.53 324.50,199.75 324.57,203.06 C324.61,204.95 325.45,210.27 326.44,214.89 C328.85,226.16 328.18,249.85 325.12,261.04 C322.22,271.66 317.68,282.24 312.38,290.74 L 307.83 298.04 L 310.17 300.05 C311.45,301.15 315.31,304.10 318.75,306.61 C322.19,309.12 325.00,311.92 325.01,312.84 C325.02,315.21 305.71,333.64 297.46,339.13 C282.28,349.22 265.45,355.76 246.18,359.05 ZM 1046.00 352.14 C1038.63,354.36 1037.48,354.41 977.47,354.76 C943.91,354.95 916.12,354.79 915.72,354.39 C915.32,353.99 915.00,289.17 915.00,210.33 L 915.00 67.00 L 945.98 67.00 L 946.50 152.50 L 994.50 153.02 C1040.00,153.51 1042.82,153.65 1048.71,155.65 C1061.59,160.04 1070.75,167.97 1076.08,179.36 C1081.73,191.44 1081.97,194.35 1081.97,253.50 C1081.97,313.57 1081.76,315.94 1075.54,328.59 C1069.83,340.19 1060.23,347.84 1046.00,352.14 ZM 200.14 335.39 C246.22,343.12 292.55,319.67 312.58,278.49 C330.84,240.96 323.89,196.18 295.10,165.79 C275.39,144.99 252.22,135.04 223.38,135.01 C202.45,134.99 183.97,139.59 162.40,150.19 C153.41,154.60 150.30,156.78 144.04,163.03 C130.90,176.15 122.35,191.34 117.82,209.63 C114.97,221.14 114.69,247.38 117.29,258.70 C119.67,269.02 123.43,279.28 127.47,286.52 C131.75,294.16 144.49,308.79 152.48,315.23 C163.89,324.43 183.04,332.53 200.14,335.39 ZM 1289.79 348.80 L 1281.57 355.00 L 1236.04 354.87 C1187.61,354.74 1182.11,354.41 1172.01,351.00 C1155.02,345.28 1145.32,334.58 1140.27,316.00 C1138.68,310.15 1138.50,303.92 1138.50,253.50 C1138.50,203.60 1138.69,196.76 1140.24,190.75 C1144.09,175.75 1152.29,164.93 1164.25,159.05 C1175.45,153.56 1180.48,153.04 1222.59,153.02 C1257.30,153.00 1261.37,153.18 1268.41,154.98 C1278.74,157.62 1285.08,161.23 1291.45,168.12 C1297.72,174.89 1300.27,179.83 1302.99,190.45 C1304.81,197.58 1305.00,201.52 1305.00,232.16 L 1305.00 266.00 L 1168.78 266.00 L 1169.17 287.25 C1169.55,307.59 1169.68,308.74 1172.15,314.09 C1173.59,317.18 1176.11,320.65 1177.81,321.86 C1184.98,326.97 1185.35,327.00 1243.63,327.00 L 1298.00 327.00 L 1298.00 342.60 ZM 854.50 276.50 L 854.50 354.50 L 800.50 354.63 C770.80,354.70 743.65,354.38 740.16,353.93 C726.23,352.11 712.76,345.42 705.71,336.82 C697.69,327.03 694.03,314.26 694.03,296.00 C694.03,276.51 698.34,262.90 707.65,252.94 C715.81,244.22 725.23,239.98 740.65,238.09 C745.54,237.49 765.94,237.00 786.23,237.00 L 822.96 237.00 L 823.63 234.35 C823.99,232.89 824.04,224.14 823.73,214.92 C823.25,200.82 822.82,197.39 821.04,193.36 C818.41,187.42 816.59,185.37 811.50,182.64 C807.62,180.56 806.15,180.49 760.50,180.00 L 713.50 179.50 L 713.21 171.87 L 712.92 164.24 L 728.00 152.88 L 771.75 153.23 C812.97,153.55 815.83,153.69 821.21,155.64 C838.52,161.90 847.85,172.53 852.71,191.50 C854.36,197.94 854.50,204.78 854.50,276.50 ZM 438.51 335.38 C441.80,336.18 448.41,336.87 453.18,336.92 C495.57,337.32 527.23,304.18 524.69,262.04 C524.38,256.79 523.41,249.80 522.55,246.50 C518.96,232.80 508.93,217.47 497.00,207.47 C490.34,201.89 477.82,196.24 467.99,194.37 C452.39,191.41 435.24,194.46 421.00,202.72 C413.03,207.35 399.66,220.52 395.18,228.17 C385.49,244.70 382.82,266.64 388.20,285.50 C393.63,304.54 407.75,322.02 424.01,329.84 C428.69,332.09 435.21,334.59 438.51,335.38 ZM 946.00 179.92 L 946.00 327.00 L 988.82 327.00 C1037.87,327.00 1038.23,326.95 1044.88,319.40 C1047.15,316.83 1049.23,313.13 1049.88,310.55 C1050.64,307.56 1051.00,288.86 1051.00,253.24 C1051.00,195.32 1050.84,193.54 1045.18,187.35 C1038.74,180.32 1040.37,180.53 990.75,180.21 ZM 1721.74 431.75 C1721.05,432.63 1717.10,433.00 1708.45,433.00 C1696.35,433.00 1696.11,432.96 1694.07,430.37 C1692.93,428.92 1692.00,427.35 1692.00,426.90 C1692.00,425.90 1716.67,357.34 1717.53,355.95 C1717.89,355.37 1714.39,355.00 1708.62,355.00 C1703.39,355.00 1698.84,354.56 1698.51,354.01 C1698.17,353.47 1686.64,320.51 1672.89,280.76 C1659.13,241.02 1644.08,197.56 1639.44,184.18 C1634.80,170.80 1631.01,159.10 1631.03,158.18 C1631.05,157.26 1631.67,155.70 1632.41,154.72 C1633.61,153.14 1635.30,152.97 1647.45,153.22 L 1661.14 153.50 L 1678.17 204.00 C1687.53,231.77 1700.66,270.70 1707.35,290.50 L 1719.50 326.50 L 1723.53 326.80 L 1727.56 327.09 L 1731.71 314.80 C1733.98,308.03 1747.13,269.04 1760.92,228.15 C1774.72,187.25 1786.00,153.62 1786.00,153.40 C1786.00,153.18 1792.25,153.00 1799.89,153.00 C1813.47,153.00 1813.80,153.05 1815.36,155.42 C1816.88,157.75 1815.73,161.36 1785.88,247.67 C1768.79,297.08 1747.59,358.42 1738.77,384.00 C1729.94,409.58 1722.28,431.06 1721.74,431.75 ZM 660.00 331.22 L 660.00 358.00 L 656.25 357.86 C651.38,357.69 648.96,357.30 640.50,355.36 C621.81,351.08 609.92,339.63 604.30,320.50 C602.67,314.94 602.52,305.50 602.24,190.75 L 601.94 67.00 L 632.96 67.00 L 633.23 189.25 C633.48,304.51 633.60,311.73 635.30,315.50 C638.79,323.24 646.38,328.69 656.25,330.52 ZM 1394.00 188.10 L 1394.00 355.00 L 1379.17 355.00 C1371.01,355.00 1364.03,354.70 1363.67,354.33 C1363.30,353.97 1363.00,313.53 1363.00,264.48 L 1363.00 175.30 L 1365.87 171.34 C1371.76,163.21 1382.13,157.14 1394.67,154.48 C1399.61,153.44 1408.66,153.03 1427.41,153.02 L 1453.32 153.00 L 1460.70 158.55 L 1468.08 164.11 L 1467.79 171.80 L 1467.50 179.50 L 1437.00 180.02 C1404.82,180.56 1403.67,180.73 1397.25,185.62 ZM 1538.76 271.57 L 1538.50 354.50 L 1523.25 354.78 C1514.86,354.93 1507.99,354.70 1507.97,354.28 C1507.96,353.85 1507.96,313.29 1507.98,264.14 C1508.02,177.21 1508.07,174.70 1509.97,172.04 C1513.30,167.37 1519.68,162.19 1526.10,158.95 C1536.20,153.85 1542.46,153.04 1571.78,153.02 L 1598.06 153.00 L 1605.57 158.65 L 1613.08 164.30 L 1612.79 171.90 L 1612.50 179.50 L 1582.00 180.00 C1553.68,180.46 1551.18,180.65 1547.00,182.60 C1545.23,183.43 1543.84,183.75 1542.77,184.49 C1538.96,187.14 1538.94,195.23 1538.81,250.85 C1538.80,257.13 1538.78,264.02 1538.76,271.57 ZM 739.00 324.92 C743.32,326.89 745.06,326.96 783.50,326.73 L 823.50 326.50 L 823.79 298.00 C823.95,282.33 823.81,268.02 823.49,266.21 L 822.89 262.92 L 740.50 263.50 L 736.26 265.93 C727.25,271.09 724.61,278.66 725.18,297.68 C725.50,308.33 725.92,311.18 727.69,314.50 C730.40,319.62 733.38,322.37 739.00,324.92 ZM 1169.24 219.25 L 1168.77 240.00 L 1274.11 240.00 L 1273.80 218.22 C1273.51,197.12 1273.42,196.28 1270.95,191.48 C1269.13,187.96 1266.98,185.64 1263.52,183.51 L 1258.66 180.50 L 1222.08 180.50 C1186.10,180.50 1185.43,180.54 1181.31,182.74 C1176.68,185.21 1172.96,189.64 1171.00,195.00 C1170.18,197.23 1169.54,206.01 1169.24,219.25 ZM 327.43 72.21 C329.34,73.27 330.09,73.78 330.86,73.82 C331.48,73.85 332.12,73.58 333.36,73.04 C333.64,72.93 333.94,72.80 334.28,72.65 C341.39,69.68 341.57,65.08 334.96,55.18 C330.25,48.12 327.07,46.48 319.83,47.33 C310.97,48.38 308.67,53.03 313.55,60.07 C316.29,64.03 322.51,69.47 327.43,72.21 Z" fill="rgb(52,119,148)"/>
</g>
</svg>
