<svg width="3761" height="812" viewBox="0 0 3761 812" fill="none" xmlns="http://www.w3.org/2000/svg">
<path d="M3113.33 621.621L3263.2 176H3354.71L3504.58 621.621L3496.62 633.557H3450.87L3413.07 518.173H3204.85L3167.05 633.557H3121.29L3113.33 621.621ZM3221.42 467.776H3396.49L3316.91 226.398H3301L3221.42 467.776Z" fill="white"/>
<path d="M3551 203.52C3551 174.27 3568.91 176.02 3591 176.02H3611V635.02H3551V203.52Z" fill="white"/>
<path d="M1027.04 510.549V114H1080.09V515.854C1080.09 546.358 1095.56 562.494 1126.51 564.262V610.018C1060.2 610.018 1027.04 576.862 1027.04 510.549ZM1283.52 604.713C1216.76 604.713 1183.38 571.336 1183.38 504.581C1183.38 437.826 1216.76 404.449 1283.52 404.449H1404.87V352.725C1404.87 321.779 1389.4 306.306 1358.45 306.306H1216.54V279.781L1243.07 259.888H1358.45C1424.76 259.888 1457.92 293.044 1457.92 359.356V604.713H1283.52ZM1236.43 511.875C1236.43 542.821 1251.91 558.294 1282.85 558.294H1404.87V447.552H1282.85C1251.91 447.552 1236.43 463.025 1236.43 493.971V511.875ZM1561.36 604.713V114H1614.41V259.888H1747.04C1813.35 259.888 1846.51 293.044 1846.51 359.356V505.244C1846.51 571.557 1813.35 604.713 1747.04 604.713H1561.36ZM1614.41 558.294H1747.04C1777.98 558.294 1793.46 542.821 1793.46 511.875V352.725C1793.46 321.779 1777.98 306.306 1747.04 306.306H1614.41V558.294ZM1942.02 505.244V359.356C1942.02 293.044 1975.17 259.888 2041.48 259.888H2127.69C2194 259.888 2227.16 293.044 2227.16 359.356V452.857H1995.07V511.875C1995.07 542.821 2010.54 558.294 2041.48 558.294H2213.9V584.819L2187.37 604.713H2041.48C1975.17 604.713 1942.02 571.557 1942.02 505.244ZM1995.07 409.754H2174.11V352.725C2174.11 321.779 2158.64 306.306 2127.69 306.306H2041.48C2010.54 306.306 1995.07 321.779 1995.07 352.725V409.754ZM2325.45 604.713V299.675C2340.92 273.15 2369.66 259.888 2411.65 259.888H2477.97L2504.49 279.781V306.306H2418.95C2400.38 306.306 2386.9 311.39 2378.5 321.558V604.713H2325.45ZM2572.18 604.713V299.675C2587.65 273.15 2616.39 259.888 2658.38 259.888H2724.7L2751.22 279.781V306.306H2665.68C2647.11 306.306 2633.63 311.39 2625.23 321.558V604.713H2572.18ZM2781.77 269.171L2787.74 259.888H2833.5L2934.29 558.294H2947.55L3048.35 259.888H3094.1L3100.07 269.171L2938.27 737.338H2892.51L2886.55 728.055L2930.98 604.713H2897.82L2781.77 269.171Z" fill="white"/>
<path d="M584.835 85.5134C587.428 87.366 589.911 89.2947 592.307 91.3977C625.269 119.778 679.367 132.035 721.286 138.015C722.124 138.139 722.961 138.263 723.824 138.391C748.805 141.962 776.024 142.25 800.887 137.581C808.921 136.421 819.276 135.754 826.345 140.266C829.864 143.409 832.145 146.148 832.55 150.968C832.843 162.569 829.331 172.848 822.593 182.277C816.229 188.919 803.582 189.535 794.935 189.858C792.699 189.901 790.465 189.921 788.229 189.931C787.403 189.935 786.576 189.939 785.724 189.944C783.981 189.951 782.236 189.956 780.492 189.959C777.89 189.966 775.289 189.989 772.688 190.013C754.308 190.1 734.112 189.418 717.379 181.023C714.706 179.752 712.175 179.093 709.28 178.526C711.005 181.831 713.314 184.069 716.08 186.497C729.437 198.579 737.064 211.867 743.834 228.304C747.719 237.723 752.282 245.675 758.806 253.545C764.155 260.264 762.773 270.129 762.946 278.336C762.972 279.242 762.997 280.147 763.024 281.08C763.052 282.305 763.052 282.305 763.081 283.556C763.31 285.819 763.856 287.501 764.809 289.555C765.454 289.569 766.099 289.584 766.763 289.6C808.266 290.602 844.714 298.066 877.371 325.564C877.807 325.926 878.242 326.288 878.692 326.662C887.914 334.301 896.199 342.396 903.388 351.992C904.033 352.854 904.686 353.715 905.339 354.571C924.324 379.372 936.067 412.92 936 444.255C936 444.958 936 445.661 936 446.385C936 447.857 936 449.329 936 450.801C935.992 453.061 936 455.321 936 457.581C936 459.016 936 460.45 936 461.884C936 462.899 936 462.899 936 463.935C936 464.56 936 465.183 935.992 465.826C935.992 466.65 935.992 466.65 935.992 467.491C935.902 468.851 935.902 468.851 935.152 470.351C935.002 471.727 934.859 473.104 934.739 474.482C931.257 513.404 909.796 550.719 880.666 576.348C878.602 578.072 876.501 579.735 874.37 581.38C873.95 581.705 873.529 582.029 873.102 582.364C866.123 587.757 858.927 592.324 851.108 596.384C850.575 596.663 850.042 596.944 849.502 597.233C829.812 607.56 807.286 612.926 785.061 613.04C784.368 613.045 783.676 613.051 782.962 613.056C780.741 613.069 778.521 613.074 776.299 613.075C775.542 613.075 774.784 613.076 774.003 613.077C763.031 613.065 752.328 612.877 741.547 610.637C740.612 610.45 740.612 610.45 739.659 610.259C701.121 602.292 665.403 577.485 643.79 544.668C641.752 541.46 639.856 538.178 637.992 534.868C637.61 534.203 637.61 534.203 637.22 533.525C622.149 507.253 614.77 475.84 616.231 445.595C616.262 444.95 616.293 444.305 616.325 443.641C618.33 405.404 632.201 370.449 658.233 342.229C659.583 340.754 660.865 339.243 662.146 337.707C679.813 317.574 704.566 303.504 730.103 296.119C730.742 295.933 731.381 295.749 732.038 295.558C735.393 294.622 738.733 293.853 742.163 293.245C742.894 293.114 743.626 292.984 744.379 292.849C744.93 292.752 745.482 292.655 746.049 292.555C744.778 287.347 743.499 282.142 742.212 276.939C741.614 274.521 741.019 272.101 740.428 269.682C735.586 244.551 735.586 244.551 723.397 222.834C722.657 222.071 721.919 221.306 721.184 220.54C720.82 220.163 720.455 219.787 720.081 219.399C718.512 217.728 717.089 215.951 715.658 214.16C713.257 211.177 710.762 208.333 708.154 205.533C704.897 202.032 701.836 198.414 698.827 194.696C697.358 192.884 695.878 191.086 694.366 189.31C693.765 188.599 693.765 188.599 693.152 187.874C691.986 186.586 691.986 186.586 689.769 186.028C689.453 186.946 689.135 187.864 688.808 188.81C687.61 192.272 686.41 195.732 685.208 199.192C684.692 200.679 684.177 202.167 683.663 203.654C674.698 229.592 674.698 229.592 670.165 234.462C669.443 235.26 668.722 236.058 668 236.856C667.63 237.253 667.262 237.651 666.882 238.061C665.348 239.739 663.888 241.475 662.423 243.214C659.479 246.703 656.478 250.115 653.336 253.427C643.959 263.334 636.313 274.47 630.911 287.023C627.915 293.015 620.674 295.232 614.884 297.9C603.29 303.258 594.54 308.894 586.215 318.812C585.291 319.867 584.365 320.919 583.436 321.971C582.059 323.542 580.715 325.12 579.4 326.745C574.035 333.295 567.555 335.519 559.602 337.661C556.46 338.552 554.402 339.406 552.447 342.068C550.853 345.791 552.587 349.424 553.714 353.086C555.579 359.507 556.938 365.887 557.935 372.497C558.054 373.281 558.174 374.065 558.296 374.872C563.85 413.451 556.602 452.579 538.19 486.855C537.947 487.309 537.703 487.763 537.452 488.231C534.254 494.131 530.687 499.682 526.773 505.126C525.339 507.06 525.339 507.06 524.683 509.361C525.101 509.407 525.519 509.453 525.949 509.501C527.911 510.191 528.838 511.191 530.244 512.681C534.906 517.297 540.507 521.064 545.756 524.974C548.768 527.232 551.738 529.542 554.699 531.867C553.677 535.991 551.818 538.208 548.93 541.151C548.109 542.011 547.288 542.873 546.468 543.735C546.073 544.146 545.679 544.557 545.272 544.981C543.943 546.385 542.679 547.837 541.426 549.309C536.724 554.712 531.624 559.479 526.028 563.946C524.686 565.023 523.357 566.117 522.048 567.234C484.164 599.423 431.864 614.784 382.858 615.889C382.16 615.905 381.463 615.921 380.743 615.938C326.249 617.018 271.978 604.052 229.028 569.377C228.581 569.017 228.134 568.658 227.673 568.288C216.873 559.538 206.73 549.65 198.262 538.619C197.607 537.804 196.951 536.992 196.292 536.181C172.992 507.321 159.691 473.567 152.535 437.389C152.385 436.64 152.235 435.892 152.081 435.12C149.878 423.304 150.076 411.294 150.056 399.32C150.05 396.582 150.025 393.846 150.002 391.109C149.819 350.564 160.92 310.39 184.004 276.801C184.297 276.371 184.59 275.942 184.892 275.499C189.454 268.83 194.408 262.596 199.762 256.546C200.257 255.986 200.751 255.426 201.261 254.849C210.022 245.013 219.241 235.241 229.778 227.288C230.526 226.695 231.274 226.102 232.044 225.492C241.703 217.853 251.942 211.336 262.795 205.533C263.487 205.159 263.486 205.159 264.191 204.777C317.272 176.274 386.488 171.954 443.825 189.188C446.02 189.87 448.209 190.569 450.394 191.279C451.082 191.502 451.77 191.726 452.479 191.955C483.238 202.12 510.277 219.315 533.687 241.542C534.619 242.425 534.619 242.425 535.569 243.327C539.153 246.815 542.371 250.501 545.477 254.418C546.661 255.885 547.888 257.317 549.147 258.72C550.084 259.779 550.084 259.779 551.04 260.86C551.615 261.49 552.19 262.121 552.782 262.77C553.948 264.798 553.948 264.798 554.151 267.362C552.76 271.287 550.246 272.709 546.867 274.972C545.57 275.88 544.274 276.789 542.98 277.701C542.313 278.165 541.648 278.629 540.961 279.108C537.081 281.881 533.371 284.876 529.646 287.853C529.114 288.273 528.582 288.693 528.033 289.126C527.567 289.5 527.099 289.873 526.617 290.257C525.433 291.055 525.433 291.055 523.932 291.055C524.225 291.511 524.517 291.967 524.818 292.438C525.995 294.282 527.169 296.129 528.341 297.978C528.917 298.885 529.495 299.789 530.074 300.694C533.618 306.231 537.052 311.797 540.16 317.593C540.546 318.309 540.546 318.309 540.939 319.039C542.692 322.37 542.692 322.37 542.692 324.063C552.426 321.673 552.426 321.673 560.514 315.999C561.463 314.372 561.463 314.372 562.062 312.808C564.823 306.01 569.451 302.418 575.126 297.965C577.376 296.174 579.572 294.327 581.76 292.462C592.028 283.73 602.49 275.227 613.083 266.893C619.253 262.022 625.027 256.82 630.542 251.218C631.979 249.805 633.463 248.482 634.991 247.169C635.992 246.295 636.993 245.419 637.992 244.543C638.706 243.933 638.706 243.933 639.434 243.311C643.986 239.14 646.245 234.537 648.685 228.929C649.102 228 649.52 227.07 649.938 226.142C651.014 223.748 652.073 221.348 653.128 218.946C654.114 216.713 655.115 214.487 656.116 212.261C659.803 204.039 663.421 195.787 667.023 187.528C667.34 186.802 667.658 186.076 667.984 185.328C668.418 184.328 668.418 184.328 668.861 183.308C669.115 182.726 669.368 182.144 669.628 181.544C670.142 180.308 670.587 179.044 671.01 177.776C670.055 177.665 669.101 177.555 668.117 177.441C653.985 175.689 640.644 171.938 627.487 166.523C626.973 166.312 626.458 166.102 625.928 165.885C611.839 160.054 598.755 152.357 585.729 144.489C580.194 141.146 575.217 138.264 568.956 136.515C558.222 133.357 549.174 124.551 541.191 117.01C540.164 116.115 539.132 115.224 538.096 114.337C531.771 108.793 525.427 103.169 523.932 94.504C523.862 88.9527 524.939 85.4773 528.76 81.3346C543.331 67.2918 570.052 76.0866 584.835 85.5134ZM532.797 85.1266C530.23 88.6653 529.479 90.7607 529.935 95.2542C535.819 106.816 549.777 119.426 561.452 125.262C567.558 126.183 572.22 123.369 577.21 120.011C579.186 117.932 579.799 116.491 579.837 113.634C579.511 104.737 574.041 97.6472 568.956 90.753C568.534 90.1448 568.113 89.5365 567.678 88.9098C564.521 84.4325 561.225 81.6463 555.687 80.4906C548.307 79.4703 538.546 79.667 532.797 85.1266ZM259.794 264.798C259.037 265.401 258.281 266.004 257.502 266.626C247.506 274.76 238.358 283.893 230.718 294.28C229.78 295.553 228.827 296.812 227.87 298.07C206.195 327.03 195.855 363.966 195.823 399.833C195.823 400.354 195.822 400.874 195.821 401.411C195.88 439.499 206.826 481.81 232.78 510.862C233.353 511.506 233.925 512.151 234.515 512.816C235.657 514.09 236.805 515.36 237.96 516.622C239.322 518.129 240.624 519.665 241.925 521.223C271.33 554.722 316.698 571.206 360.193 574.241C366.51 574.635 372.78 574.933 379.106 574.628C379.746 574.597 380.384 574.566 381.043 574.534C426.802 572.047 466.888 553.363 499.92 522.114C500.431 521.636 500.942 521.156 501.468 520.664C504.926 517.326 507.944 513.645 510.923 509.877C511.627 508.988 512.336 508.104 513.048 507.221C519.564 499.128 525.014 490.75 529.935 481.604C530.213 481.095 530.491 480.585 530.777 480.06C551.938 440.878 555.625 394.351 543.443 351.821C533.254 317.948 512.568 286.252 484.161 264.798C483.695 264.44 483.229 264.083 482.749 263.716C425.158 219.827 346.621 215.04 259.794 264.798ZM695.773 362.323C695.397 362.674 695.023 363.024 694.636 363.386C672.899 383.809 658.536 413.745 657.404 443.713C657.137 456.378 657.005 468.998 660.223 481.323C660.424 482.098 660.624 482.875 660.83 483.675C666.557 505.234 676.555 523.967 692.021 540.119C692.856 541.025 692.856 541.025 693.709 541.95C712.121 561.296 740.594 573.689 767.208 574.721C801.934 575.496 832.971 566.591 858.612 542.37C859.204 541.818 859.805 541.267 860.428 540.699C882.076 520.089 894.533 488.687 895.381 459.098C895.396 458.593 895.411 458.088 895.426 457.569C896.349 425.395 886.174 393.579 863.864 369.919C863.369 369.392 862.874 368.866 862.364 368.325C861.493 367.312 860.638 366.296 859.782 365.277C843.754 347.075 819.951 335.16 796.325 330.815C795.422 330.646 794.519 330.478 793.588 330.305C757.701 324.624 721.764 337.671 695.773 362.323Z" fill="white"/>
</svg>
