<svg xmlns="http://www.w3.org/2000/svg" width="2560" height="1440" viewBox="0 0 2560 1440" fill="none">
  <defs>
    <linearGradient id="bg" x1="120" y1="80" x2="2450" y2="1360" gradientUnits="userSpaceOnUse">
      <stop stop-color="#03060E"/>
      <stop offset="0.45" stop-color="#09182F"/>
      <stop offset="0.78" stop-color="#112A4A"/>
      <stop offset="1" stop-color="#1A395D"/>
    </linearGradient>
    <radialGradient id="haloA" cx="0" cy="0" r="1" gradientUnits="userSpaceOnUse" gradientTransform="translate(1830 560) rotate(136) scale(800 560)">
      <stop stop-color="#66C8FF" stop-opacity="0.52"/>
      <stop offset="0.55" stop-color="#2DD5FF" stop-opacity="0.22"/>
      <stop offset="1" stop-color="#2DD5FF" stop-opacity="0"/>
    </radialGradient>
    <radialGradient id="haloB" cx="0" cy="0" r="1" gradientUnits="userSpaceOnUse" gradientTransform="translate(1910 940) rotate(18) scale(680 350)">
      <stop stop-color="#F5B865" stop-opacity="0.25"/>
      <stop offset="1" stop-color="#F5B865" stop-opacity="0"/>
    </radialGradient>
    <linearGradient id="wire" x1="1340" y1="1020" x2="2280" y2="380" gradientUnits="userSpaceOnUse">
      <stop stop-color="#82D0FF"/>
      <stop offset="0.52" stop-color="#BDE8FF"/>
      <stop offset="1" stop-color="#FFD79A"/>
    </linearGradient>
    <linearGradient id="leftFade" x1="1080" y1="720" x2="90" y2="720" gradientUnits="userSpaceOnUse">
      <stop stop-color="#040A14" stop-opacity="0.06"/>
      <stop offset="0.47" stop-color="#040A14" stop-opacity="0.62"/>
      <stop offset="1" stop-color="#040A14" stop-opacity="0.95"/>
    </linearGradient>
    <pattern id="grid" width="88" height="88" patternUnits="userSpaceOnUse">
      <path d="M88 0H0V88" stroke="#9AB5D6" stroke-opacity="0.1"/>
    </pattern>
    <filter id="blur" x="-20%" y="-20%" width="140%" height="140%">
      <feGaussianBlur stdDeviation="16"/>
    </filter>
    <filter id="grain" x="0" y="0" width="100%" height="100%">
      <feTurbulence type="fractalNoise" baseFrequency="0.54" numOctaves="2" seed="14"/>
      <feColorMatrix type="saturate" values="0"/>
      <feComponentTransfer>
        <feFuncA type="table" tableValues="0 0.05"/>
      </feComponentTransfer>
    </filter>
  </defs>

  <rect width="2560" height="1440" fill="url(#bg)"/>
  <rect width="2560" height="1440" fill="url(#grid)"/>
  <rect width="2560" height="1440" fill="url(#haloA)"/>
  <rect width="2560" height="1440" fill="url(#haloB)"/>

  <g stroke="url(#wire)" stroke-width="2.4" stroke-linecap="round" stroke-opacity="0.72" fill="none">
    <path d="M1360 860L1540 700L1740 770L1920 640L2120 720L2280 620"/>
    <path d="M1420 1050L1600 880L1800 960L1990 830L2190 910"/>
    <path d="M1320 690L1510 560L1720 620L1930 500L2140 560"/>
    <path d="M1540 700L1510 560"/>
    <path d="M1740 770L1720 620"/>
    <path d="M1920 640L1930 500"/>
    <path d="M1600 880L1540 700"/>
    <path d="M1800 960L1740 770"/>
    <path d="M1990 830L1920 640"/>
  </g>

  <g fill="#E3F3FF">
    <circle cx="1360" cy="860" r="8"/>
    <circle cx="1540" cy="700" r="8"/>
    <circle cx="1740" cy="770" r="8"/>
    <circle cx="1920" cy="640" r="8"/>
    <circle cx="2120" cy="720" r="8"/>
    <circle cx="2280" cy="620" r="8"/>
    <circle cx="1420" cy="1050" r="8"/>
    <circle cx="1600" cy="880" r="8"/>
    <circle cx="1800" cy="960" r="8"/>
    <circle cx="1990" cy="830" r="8"/>
    <circle cx="2190" cy="910" r="8"/>
    <circle cx="1320" cy="690" r="8"/>
    <circle cx="1510" cy="560" r="8"/>
    <circle cx="1720" cy="620" r="8"/>
    <circle cx="1930" cy="500" r="8"/>
    <circle cx="2140" cy="560" r="8"/>
  </g>

  <g stroke="#94D0FF" stroke-opacity="0.35" fill="none">
    <ellipse cx="1820" cy="720" rx="560" ry="370" stroke-width="1.8"/>
    <ellipse cx="1820" cy="720" rx="430" ry="282" stroke-width="1.6"/>
    <ellipse cx="1820" cy="720" rx="320" ry="210" stroke-width="1.5"/>
  </g>

  <circle cx="1990" cy="520" r="160" fill="#F5B865" fill-opacity="0.17" filter="url(#blur)"/>
  <circle cx="1740" cy="860" r="260" fill="#2DD5FF" fill-opacity="0.14" filter="url(#blur)"/>

  <rect x="0" y="0" width="1180" height="1440" fill="url(#leftFade)"/>
  <rect x="0" y="0" width="2560" height="1440" filter="url(#grain)" opacity="0.45"/>
</svg>
