<svg xmlns="http://www.w3.org/2000/svg" width="2560" height="1440" viewBox="0 0 2560 1440" fill="none">
  <defs>
    <linearGradient id="bg" x1="120" y1="80" x2="2450" y2="1360" gradientUnits="userSpaceOnUse">
      <stop stop-color="#03060E"/>
      <stop offset="0.45" stop-color="#09182F"/>
      <stop offset="0.78" stop-color="#112A4A"/>
      <stop offset="1" stop-color="#1A395D"/>
    </linearGradient>
    <radialGradient id="haloA" cx="0" cy="0" r="1" gradientUnits="userSpaceOnUse" gradientTransform="translate(1840 530) rotate(136) scale(800 540)">
      <stop stop-color="#66C8FF" stop-opacity="0.5"/>
      <stop offset="0.55" stop-color="#2FD5FF" stop-opacity="0.22"/>
      <stop offset="1" stop-color="#2FD5FF" stop-opacity="0"/>
    </radialGradient>
    <radialGradient id="haloB" cx="0" cy="0" r="1" gradientUnits="userSpaceOnUse" gradientTransform="translate(1940 930) rotate(18) scale(680 350)">
      <stop stop-color="#F5B865" stop-opacity="0.23"/>
      <stop offset="1" stop-color="#F5B865" stop-opacity="0"/>
    </radialGradient>
    <linearGradient id="tile" x1="0" y1="0" x2="1" y2="1">
      <stop stop-color="#17314E" stop-opacity="0.95"/>
      <stop offset="1" stop-color="#10223C" stop-opacity="0.9"/>
    </linearGradient>
    <linearGradient id="route" x1="1410" y1="1120" x2="2300" y2="430" gradientUnits="userSpaceOnUse">
      <stop stop-color="#82D0FF"/>
      <stop offset="0.52" stop-color="#BDE8FF"/>
      <stop offset="1" stop-color="#FFD79A"/>
    </linearGradient>
    <linearGradient id="leftFade" x1="1080" y1="720" x2="90" y2="720" gradientUnits="userSpaceOnUse">
      <stop stop-color="#040A14" stop-opacity="0.06"/>
      <stop offset="0.47" stop-color="#040A14" stop-opacity="0.62"/>
      <stop offset="1" stop-color="#040A14" stop-opacity="0.95"/>
    </linearGradient>
    <pattern id="grid" width="88" height="88" patternUnits="userSpaceOnUse">
      <path d="M88 0H0V88" stroke="#9AB5D6" stroke-opacity="0.1"/>
    </pattern>
    <filter id="blur" x="-20%" y="-20%" width="140%" height="140%">
      <feGaussianBlur stdDeviation="16"/>
    </filter>
    <filter id="grain" x="0" y="0" width="100%" height="100%">
      <feTurbulence type="fractalNoise" baseFrequency="0.54" numOctaves="2" seed="20"/>
      <feColorMatrix type="saturate" values="0"/>
      <feComponentTransfer>
        <feFuncA type="table" tableValues="0 0.05"/>
      </feComponentTransfer>
    </filter>
  </defs>

  <rect width="2560" height="1440" fill="url(#bg)"/>
  <rect width="2560" height="1440" fill="url(#grid)"/>
  <rect width="2560" height="1440" fill="url(#haloA)"/>
  <rect width="2560" height="1440" fill="url(#haloB)"/>

  <g opacity="0.93">
    <rect x="1380" y="250" width="860" height="980" rx="36" fill="#0B182B" fill-opacity="0.38" stroke="#7CBDEB" stroke-opacity="0.34"/>

    <rect x="1450" y="320" width="230" height="210" rx="20" fill="url(#tile)" stroke="#87CBFF" stroke-opacity="0.44"/>
    <rect x="1710" y="320" width="230" height="210" rx="20" fill="url(#tile)" stroke="#87CBFF" stroke-opacity="0.44"/>
    <rect x="1970" y="320" width="230" height="210" rx="20" fill="url(#tile)" stroke="#87CBFF" stroke-opacity="0.44"/>

    <rect x="1450" y="560" width="230" height="210" rx="20" fill="url(#tile)" stroke="#87CBFF" stroke-opacity="0.44"/>
    <rect x="1710" y="560" width="230" height="210" rx="20" fill="url(#tile)" stroke="#87CBFF" stroke-opacity="0.44"/>
    <rect x="1970" y="560" width="230" height="210" rx="20" fill="url(#tile)" stroke="#87CBFF" stroke-opacity="0.44"/>

    <rect x="1450" y="800" width="750" height="330" rx="24" fill="url(#tile)" stroke="#87CBFF" stroke-opacity="0.36"/>
  </g>

  <g stroke="#95D2FF" stroke-opacity="0.62" stroke-width="2" fill="none">
    <path d="M1510 390H1620"/>
    <path d="M1770 390H1880"/>
    <path d="M2030 390H2140"/>
    <path d="M1510 630H1620"/>
    <path d="M1770 630H1880"/>
    <path d="M2030 630H2140"/>
    <path d="M1510 900H2130"/>
    <path d="M1510 940H2060"/>
    <path d="M1510 980H1980"/>
  </g>

  <g stroke="url(#route)" stroke-width="6" stroke-linecap="round" fill="none">
    <path d="M1510 1110C1660 1030 1810 980 1960 900C2080 840 2200 760 2300 680"/>
  </g>
  <g stroke="#9CD8FF" stroke-opacity="0.74" stroke-width="2.6" stroke-linecap="round" fill="none">
    <path d="M1510 1060C1670 990 1820 940 1970 870C2100 810 2200 750 2300 710"/>
  </g>

  <g fill="#E2F3FF">
    <circle cx="1960" cy="900" r="7"/>
    <circle cx="2200" cy="760" r="7"/>
    <circle cx="2300" cy="680" r="7"/>
  </g>

  <circle cx="2040" cy="510" r="170" fill="#F5B865" fill-opacity="0.16" filter="url(#blur)"/>
  <circle cx="1810" cy="900" r="250" fill="#2FD5FF" fill-opacity="0.14" filter="url(#blur)"/>

  <rect x="0" y="0" width="1180" height="1440" fill="url(#leftFade)"/>
  <rect x="0" y="0" width="2560" height="1440" filter="url(#grain)" opacity="0.45"/>
</svg>
