<svg xmlns="http://www.w3.org/2000/svg" width="2560" height="1440" viewBox="0 0 2560 1440" fill="none">
  <defs>
    <linearGradient id="bg" x1="120" y1="80" x2="2460" y2="1360" gradientUnits="userSpaceOnUse">
      <stop stop-color="#03070F"/>
      <stop offset="0.45" stop-color="#0A1831"/>
      <stop offset="0.8" stop-color="#123252"/>
      <stop offset="1" stop-color="#1A3E61"/>
    </linearGradient>
    <radialGradient id="glowA" cx="0" cy="0" r="1" gradientUnits="userSpaceOnUse" gradientTransform="translate(1860 420) rotate(136) scale(800 520)">
      <stop stop-color="#63CBFF" stop-opacity="0.46"/>
      <stop offset="1" stop-color="#63CBFF" stop-opacity="0"/>
    </radialGradient>
    <radialGradient id="glowB" cx="0" cy="0" r="1" gradientUnits="userSpaceOnUse" gradientTransform="translate(1940 930) rotate(20) scale(760 420)">
      <stop stop-color="#F6BD67" stop-opacity="0.24"/>
      <stop offset="1" stop-color="#F6BD67" stop-opacity="0"/>
    </radialGradient>
    <linearGradient id="sheet" x1="0" y1="0" x2="1" y2="1">
      <stop stop-color="#173453" stop-opacity="0.95"/>
      <stop offset="1" stop-color="#10243D" stop-opacity="0.92"/>
    </linearGradient>
    <linearGradient id="line" x1="1360" y1="1080" x2="2360" y2="500" gradientUnits="userSpaceOnUse">
      <stop stop-color="#89D3FF"/>
      <stop offset="0.56" stop-color="#C2EAFF"/>
      <stop offset="1" stop-color="#FFD69A"/>
    </linearGradient>
    <linearGradient id="leftFade" x1="1080" y1="720" x2="90" y2="720" gradientUnits="userSpaceOnUse">
      <stop stop-color="#040912" stop-opacity="0.08"/>
      <stop offset="0.48" stop-color="#040912" stop-opacity="0.66"/>
      <stop offset="1" stop-color="#040912" stop-opacity="0.96"/>
    </linearGradient>
    <pattern id="grid" width="88" height="88" patternUnits="userSpaceOnUse">
      <path d="M88 0H0V88" stroke="#A6BEDA" stroke-opacity="0.09"/>
    </pattern>
    <filter id="soft" x="-20%" y="-20%" width="140%" height="140%"><feGaussianBlur stdDeviation="18"/></filter>
  </defs>

  <rect width="2560" height="1440" fill="url(#bg)"/>
  <rect width="2560" height="1440" fill="url(#grid)"/>
  <rect width="2560" height="1440" fill="url(#glowA)"/>
  <rect width="2560" height="1440" fill="url(#glowB)"/>

  <g opacity="0.95">
    <rect x="1560" y="250" width="720" height="980" rx="34" fill="#0D1C31" fill-opacity="0.42" stroke="#7FC4F1" stroke-opacity="0.34"/>

    <rect x="1670" y="320" width="500" height="240" rx="22" fill="url(#sheet)" stroke="#92D8FF" stroke-opacity="0.46"/>
    <rect x="1625" y="400" width="500" height="240" rx="22" fill="url(#sheet)" stroke="#92D8FF" stroke-opacity="0.46"/>
    <rect x="1580" y="480" width="500" height="240" rx="22" fill="url(#sheet)" stroke="#92D8FF" stroke-opacity="0.46"/>

    <rect x="1620" y="770" width="560" height="330" rx="24" fill="url(#sheet)" stroke="#8ED3FF" stroke-opacity="0.4"/>
    <circle cx="1990" cy="440" r="180" fill="#2ED4FF" fill-opacity="0.14" filter="url(#soft)"/>
  </g>

  <g stroke="#9BD9FF" stroke-opacity="0.64" stroke-width="2" fill="none">
    <path d="M1660 560H2020"/>
    <path d="M1660 600H1950"/>
    <path d="M1660 640H1880"/>
    <path d="M1690 840H2090"/>
    <path d="M1690 885H2030"/>
    <path d="M1690 930H1970"/>
    <path d="M1690 975H2080"/>
  </g>

  <g stroke="url(#line)" stroke-linecap="round" fill="none">
    <path d="M1360 1120C1540 1020 1710 1060 1880 940C2030 840 2180 860 2360 740" stroke-width="8"/>
    <path d="M1360 1180C1540 1110 1720 1130 1890 1040C2050 960 2200 980 2360 900" stroke-width="3" opacity="0.82"/>
  </g>

  <g fill="#E6F6FF">
    <circle cx="1360" cy="1120" r="7"/>
    <circle cx="1880" cy="940" r="7"/>
    <circle cx="2360" cy="740" r="7"/>
  </g>

  <rect x="0" y="0" width="1180" height="1440" fill="url(#leftFade)"/>
</svg>
