<svg xmlns="http://www.w3.org/2000/svg" width="2560" height="1440" viewBox="0 0 2560 1440" fill="none">
  <defs>
    <linearGradient id="bg" x1="120" y1="80" x2="2460" y2="1360" gradientUnits="userSpaceOnUse">
      <stop stop-color="#03070F"/>
      <stop offset="0.45" stop-color="#0A1831"/>
      <stop offset="0.8" stop-color="#123252"/>
      <stop offset="1" stop-color="#1A3E61"/>
    </linearGradient>
    <radialGradient id="glowA" cx="0" cy="0" r="1" gradientUnits="userSpaceOnUse" gradientTransform="translate(1880 420) rotate(136) scale(780 520)">
      <stop stop-color="#62CBFF" stop-opacity="0.52"/>
      <stop offset="1" stop-color="#62CBFF" stop-opacity="0"/>
    </radialGradient>
    <radialGradient id="glowB" cx="0" cy="0" r="1" gradientUnits="userSpaceOnUse" gradientTransform="translate(1920 950) rotate(20) scale(760 420)">
      <stop stop-color="#F6BD67" stop-opacity="0.26"/>
      <stop offset="1" stop-color="#F6BD67" stop-opacity="0"/>
    </radialGradient>
    <linearGradient id="wave" x1="1360" y1="1060" x2="2340" y2="520" gradientUnits="userSpaceOnUse">
      <stop stop-color="#87D2FF"/>
      <stop offset="0.55" stop-color="#C2EAFF"/>
      <stop offset="1" stop-color="#FFD69A"/>
    </linearGradient>
    <linearGradient id="leftFade" x1="1080" y1="720" x2="90" y2="720" gradientUnits="userSpaceOnUse">
      <stop stop-color="#040912" stop-opacity="0.08"/>
      <stop offset="0.48" stop-color="#040912" stop-opacity="0.66"/>
      <stop offset="1" stop-color="#040912" stop-opacity="0.96"/>
    </linearGradient>
    <pattern id="grid" width="88" height="88" patternUnits="userSpaceOnUse">
      <path d="M88 0H0V88" stroke="#A6BEDA" stroke-opacity="0.09"/>
    </pattern>
    <filter id="soft" x="-20%" y="-20%" width="140%" height="140%"><feGaussianBlur stdDeviation="18"/></filter>
  </defs>

  <rect width="2560" height="1440" fill="url(#bg)"/>
  <rect width="2560" height="1440" fill="url(#grid)"/>
  <rect width="2560" height="1440" fill="url(#glowA)"/>
  <rect width="2560" height="1440" fill="url(#glowB)"/>

  <g opacity="0.95">
    <rect x="1460" y="240" width="760" height="940" rx="36" fill="#0D1C31" fill-opacity="0.42" stroke="#7FC4F1" stroke-opacity="0.34"/>

    <rect x="1740" y="340" width="190" height="470" rx="92" fill="#112742" stroke="#8ED3FF" stroke-opacity="0.55" stroke-width="2"/>
    <rect x="1805" y="835" width="62" height="180" rx="28" fill="#133150"/>
    <rect x="1690" y="1010" width="290" height="80" rx="36" fill="#10243D" stroke="#83C9F8" stroke-opacity="0.45"/>

    <circle cx="1835" cy="480" r="112" fill="#153454" stroke="#97DAFF" stroke-opacity="0.58" stroke-width="2"/>
    <circle cx="1835" cy="480" r="78" fill="none" stroke="#A8E4FF" stroke-opacity="0.58" stroke-width="1.8"/>
    <circle cx="1835" cy="480" r="44" fill="none" stroke="#A8E4FF" stroke-opacity="0.52" stroke-width="1.8"/>

    <circle cx="1835" cy="480" r="210" fill="#2FD4FF" fill-opacity="0.14" filter="url(#soft)"/>
  </g>

  <g stroke="#96D8FF" stroke-opacity="0.62" stroke-width="2" fill="none">
    <path d="M1510 430V610"/>
    <path d="M1570 380V660"/>
    <path d="M1630 430V610"/>
    <path d="M2030 430V610"/>
    <path d="M2090 380V660"/>
    <path d="M2150 430V610"/>
  </g>

  <g stroke="url(#wave)" stroke-linecap="round" fill="none">
    <path d="M1360 1080C1540 980 1710 1020 1880 900C2020 800 2170 840 2340 700" stroke-width="8"/>
    <path d="M1360 1150C1540 1080 1710 1100 1890 1010C2050 930 2200 950 2340 860" stroke-width="3" opacity="0.82"/>
  </g>

  <g fill="#E6F6FF">
    <circle cx="1360" cy="1080" r="7"/>
    <circle cx="1880" cy="900" r="7"/>
    <circle cx="2340" cy="700" r="7"/>
  </g>

  <rect x="0" y="0" width="1180" height="1440" fill="url(#leftFade)"/>
</svg>
