<svg xmlns="http://www.w3.org/2000/svg" width="2560" height="1440" viewBox="0 0 2560 1440" fill="none">
  <defs>
    <linearGradient id="bg" x1="120" y1="80" x2="2460" y2="1360" gradientUnits="userSpaceOnUse">
      <stop stop-color="#03070F"/>
      <stop offset="0.45" stop-color="#0A1831"/>
      <stop offset="0.8" stop-color="#123252"/>
      <stop offset="1" stop-color="#1A3E61"/>
    </linearGradient>
    <radialGradient id="glowA" cx="0" cy="0" r="1" gradientUnits="userSpaceOnUse" gradientTransform="translate(1880 430) rotate(136) scale(790 520)">
      <stop stop-color="#62CBFF" stop-opacity="0.5"/>
      <stop offset="1" stop-color="#62CBFF" stop-opacity="0"/>
    </radialGradient>
    <radialGradient id="glowB" cx="0" cy="0" r="1" gradientUnits="userSpaceOnUse" gradientTransform="translate(1940 940) rotate(20) scale(760 420)">
      <stop stop-color="#F6BD67" stop-opacity="0.24"/>
      <stop offset="1" stop-color="#F6BD67" stop-opacity="0"/>
    </radialGradient>
    <linearGradient id="bookA" x1="0" y1="0" x2="1" y2="1">
      <stop stop-color="#173453" stop-opacity="0.95"/>
      <stop offset="1" stop-color="#10243D" stop-opacity="0.92"/>
    </linearGradient>
    <linearGradient id="beam" x1="1920" y1="500" x2="1920" y2="1040" gradientUnits="userSpaceOnUse">
      <stop stop-color="#9FE2FF" stop-opacity="0.52"/>
      <stop offset="1" stop-color="#9FE2FF" stop-opacity="0"/>
    </linearGradient>
    <linearGradient id="line" x1="1360" y1="1080" x2="2360" y2="500" gradientUnits="userSpaceOnUse">
      <stop stop-color="#89D3FF"/>
      <stop offset="0.56" stop-color="#C2EAFF"/>
      <stop offset="1" stop-color="#FFD69A"/>
    </linearGradient>
    <linearGradient id="leftFade" x1="1080" y1="720" x2="90" y2="720" gradientUnits="userSpaceOnUse">
      <stop stop-color="#040912" stop-opacity="0.08"/>
      <stop offset="0.48" stop-color="#040912" stop-opacity="0.66"/>
      <stop offset="1" stop-color="#040912" stop-opacity="0.96"/>
    </linearGradient>
    <pattern id="grid" width="88" height="88" patternUnits="userSpaceOnUse">
      <path d="M88 0H0V88" stroke="#A6BEDA" stroke-opacity="0.09"/>
    </pattern>
    <filter id="soft" x="-20%" y="-20%" width="140%" height="140%"><feGaussianBlur stdDeviation="18"/></filter>
  </defs>

  <rect width="2560" height="1440" fill="url(#bg)"/>
  <rect width="2560" height="1440" fill="url(#grid)"/>
  <rect width="2560" height="1440" fill="url(#glowA)"/>
  <rect width="2560" height="1440" fill="url(#glowB)"/>

  <g opacity="0.95">
    <rect x="1460" y="250" width="800" height="980" rx="36" fill="#0D1C31" fill-opacity="0.42" stroke="#7FC4F1" stroke-opacity="0.34"/>

    <path d="M1580 860V440C1580 405 1608 378 1643 378H1910C1945 378 1974 405 1974 440V860C1932 826 1884 810 1830 810H1724C1670 810 1622 826 1580 860Z" fill="url(#bookA)" stroke="#90D6FF" stroke-opacity="0.5" stroke-width="2"/>
    <path d="M1974 860V440C1974 405 2003 378 2038 378H2305C2340 378 2368 405 2368 440V860C2326 826 2278 810 2224 810H2118C2064 810 2016 826 1974 860Z" fill="#112742" stroke="#90D6FF" stroke-opacity="0.5" stroke-width="2"/>

    <path d="M1974 440V870" stroke="#A7E4FF" stroke-opacity="0.66" stroke-width="2"/>
    <ellipse cx="1974" cy="880" rx="240" ry="88" fill="#10233B" stroke="#84C9F8" stroke-opacity="0.46"/>
    <ellipse cx="1974" cy="620" rx="170" ry="290" fill="url(#beam)"/>

    <circle cx="2060" cy="520" r="180" fill="#2ED4FF" fill-opacity="0.14" filter="url(#soft)"/>
  </g>

  <g stroke="#9BD9FF" stroke-opacity="0.64" stroke-width="2" fill="none">
    <path d="M1660 500H1880"/>
    <path d="M1660 540H1840"/>
    <path d="M1660 580H1860"/>
    <path d="M2050 500H2270"/>
    <path d="M2050 540H2230"/>
    <path d="M2050 580H2250"/>
  </g>

  <g stroke="url(#line)" stroke-linecap="round" fill="none">
    <path d="M1360 1120C1540 1020 1710 1060 1880 940C2030 840 2180 860 2360 740" stroke-width="8"/>
    <path d="M1360 1180C1540 1110 1720 1130 1890 1040C2050 960 2200 980 2360 900" stroke-width="3" opacity="0.82"/>
  </g>

  <g fill="#E6F6FF">
    <circle cx="1360" cy="1120" r="7"/>
    <circle cx="1880" cy="940" r="7"/>
    <circle cx="2360" cy="740" r="7"/>
  </g>

  <rect x="0" y="0" width="1180" height="1440" fill="url(#leftFade)"/>
</svg>
