<svg xmlns="http://www.w3.org/2000/svg" width="2560" height="1440" viewBox="0 0 2560 1440" fill="none">
  <defs>
    <linearGradient id="bg" x1="120" y1="80" x2="2450" y2="1360" gradientUnits="userSpaceOnUse">
      <stop stop-color="#03060E"/>
      <stop offset="0.45" stop-color="#09182F"/>
      <stop offset="0.78" stop-color="#112A4A"/>
      <stop offset="1" stop-color="#1A395D"/>
    </linearGradient>
    <radialGradient id="haloA" cx="0" cy="0" r="1" gradientUnits="userSpaceOnUse" gradientTransform="translate(1840 520) rotate(136) scale(800 540)">
      <stop stop-color="#66C8FF" stop-opacity="0.52"/>
      <stop offset="0.55" stop-color="#2CD5FF" stop-opacity="0.23"/>
      <stop offset="1" stop-color="#2CD5FF" stop-opacity="0"/>
    </radialGradient>
    <radialGradient id="haloB" cx="0" cy="0" r="1" gradientUnits="userSpaceOnUse" gradientTransform="translate(1940 920) rotate(18) scale(680 350)">
      <stop stop-color="#F5B865" stop-opacity="0.24"/>
      <stop offset="1" stop-color="#F5B865" stop-opacity="0"/>
    </radialGradient>
    <linearGradient id="panel" x1="0" y1="0" x2="1" y2="1">
      <stop stop-color="#17314E" stop-opacity="0.95"/>
      <stop offset="1" stop-color="#10223C" stop-opacity="0.9"/>
    </linearGradient>
    <linearGradient id="flow" x1="1380" y1="1100" x2="2290" y2="420" gradientUnits="userSpaceOnUse">
      <stop stop-color="#82D0FF"/>
      <stop offset="0.52" stop-color="#BDE8FF"/>
      <stop offset="1" stop-color="#FFD79A"/>
    </linearGradient>
    <linearGradient id="leftFade" x1="1080" y1="720" x2="90" y2="720" gradientUnits="userSpaceOnUse">
      <stop stop-color="#040A14" stop-opacity="0.06"/>
      <stop offset="0.47" stop-color="#040A14" stop-opacity="0.62"/>
      <stop offset="1" stop-color="#040A14" stop-opacity="0.95"/>
    </linearGradient>
    <pattern id="grid" width="88" height="88" patternUnits="userSpaceOnUse">
      <path d="M88 0H0V88" stroke="#9AB5D6" stroke-opacity="0.1"/>
    </pattern>
    <filter id="blur" x="-20%" y="-20%" width="140%" height="140%">
      <feGaussianBlur stdDeviation="16"/>
    </filter>
    <filter id="grain" x="0" y="0" width="100%" height="100%">
      <feTurbulence type="fractalNoise" baseFrequency="0.54" numOctaves="2" seed="18"/>
      <feColorMatrix type="saturate" values="0"/>
      <feComponentTransfer>
        <feFuncA type="table" tableValues="0 0.05"/>
      </feComponentTransfer>
    </filter>
  </defs>

  <rect width="2560" height="1440" fill="url(#bg)"/>
  <rect width="2560" height="1440" fill="url(#grid)"/>
  <rect width="2560" height="1440" fill="url(#haloA)"/>
  <rect width="2560" height="1440" fill="url(#haloB)"/>

  <g opacity="0.93">
    <rect x="1380" y="300" width="280" height="230" rx="24" fill="url(#panel)" stroke="#87CBFF" stroke-opacity="0.45"/>
    <rect x="1700" y="260" width="340" height="280" rx="24" fill="url(#panel)" stroke="#87CBFF" stroke-opacity="0.45"/>
    <rect x="2060" y="320" width="220" height="210" rx="24" fill="url(#panel)" stroke="#87CBFF" stroke-opacity="0.4"/>

    <rect x="1420" y="600" width="420" height="340" rx="26" fill="url(#panel)" stroke="#87CBFF" stroke-opacity="0.42"/>
    <rect x="1880" y="630" width="390" height="350" rx="26" fill="url(#panel)" stroke="#87CBFF" stroke-opacity="0.38"/>
  </g>

  <g stroke="#95D2FF" stroke-opacity="0.62" stroke-width="2" fill="none">
    <path d="M1450 380H1590"/>
    <path d="M1770 360H1970"/>
    <path d="M2120 390H2240"/>
    <path d="M1490 700H1790"/>
    <path d="M1490 740H1720"/>
    <path d="M1950 730H2200"/>
    <path d="M1950 770H2150"/>
  </g>

  <g stroke="url(#flow)" stroke-width="6" stroke-linecap="round" fill="none">
    <path d="M1470 1110C1620 1030 1760 980 1910 900C2040 830 2170 760 2290 680"/>
  </g>
  <g stroke="#9CD8FF" stroke-opacity="0.74" stroke-width="2.6" stroke-linecap="round" fill="none">
    <path d="M1470 1060C1630 990 1770 940 1920 870C2050 810 2180 750 2290 710"/>
  </g>

  <g fill="#E2F3FF">
    <circle cx="1910" cy="900" r="7"/>
    <circle cx="2170" cy="760" r="7"/>
    <circle cx="2290" cy="680" r="7"/>
  </g>

  <circle cx="2030" cy="500" r="170" fill="#F5B865" fill-opacity="0.17" filter="url(#blur)"/>
  <circle cx="1800" cy="860" r="250" fill="#2CD5FF" fill-opacity="0.14" filter="url(#blur)"/>

  <rect x="0" y="0" width="1180" height="1440" fill="url(#leftFade)"/>
  <rect x="0" y="0" width="2560" height="1440" filter="url(#grain)" opacity="0.45"/>
</svg>
