<svg xmlns="http://www.w3.org/2000/svg" width="2560" height="1440" viewBox="0 0 2560 1440" fill="none">
  <defs>
    <linearGradient id="bg" x1="120" y1="80" x2="2460" y2="1360" gradientUnits="userSpaceOnUse">
      <stop stop-color="#03070F"/>
      <stop offset="0.45" stop-color="#0A1831"/>
      <stop offset="0.8" stop-color="#123252"/>
      <stop offset="1" stop-color="#1A3E61"/>
    </linearGradient>
    <radialGradient id="glowA" cx="0" cy="0" r="1" gradientUnits="userSpaceOnUse" gradientTransform="translate(1860 430) rotate(136) scale(800 520)">
      <stop stop-color="#63CBFF" stop-opacity="0.48"/>
      <stop offset="1" stop-color="#63CBFF" stop-opacity="0"/>
    </radialGradient>
    <radialGradient id="glowB" cx="0" cy="0" r="1" gradientUnits="userSpaceOnUse" gradientTransform="translate(1940 930) rotate(20) scale(760 420)">
      <stop stop-color="#F6BD67" stop-opacity="0.24"/>
      <stop offset="1" stop-color="#F6BD67" stop-opacity="0"/>
    </radialGradient>
    <linearGradient id="card" x1="0" y1="0" x2="1" y2="1">
      <stop stop-color="#173453" stop-opacity="0.95"/>
      <stop offset="1" stop-color="#10243D" stop-opacity="0.92"/>
    </linearGradient>
    <linearGradient id="metric" x1="1360" y1="1080" x2="2360" y2="500" gradientUnits="userSpaceOnUse">
      <stop stop-color="#89D3FF"/>
      <stop offset="0.56" stop-color="#C2EAFF"/>
      <stop offset="1" stop-color="#FFD69A"/>
    </linearGradient>
    <linearGradient id="leftFade" x1="1080" y1="720" x2="90" y2="720" gradientUnits="userSpaceOnUse">
      <stop stop-color="#040912" stop-opacity="0.08"/>
      <stop offset="0.48" stop-color="#040912" stop-opacity="0.66"/>
      <stop offset="1" stop-color="#040912" stop-opacity="0.96"/>
    </linearGradient>
    <pattern id="grid" width="88" height="88" patternUnits="userSpaceOnUse">
      <path d="M88 0H0V88" stroke="#A6BEDA" stroke-opacity="0.09"/>
    </pattern>
    <filter id="soft" x="-20%" y="-20%" width="140%" height="140%"><feGaussianBlur stdDeviation="18"/></filter>
  </defs>

  <rect width="2560" height="1440" fill="url(#bg)"/>
  <rect width="2560" height="1440" fill="url(#grid)"/>
  <rect width="2560" height="1440" fill="url(#glowA)"/>
  <rect width="2560" height="1440" fill="url(#glowB)"/>

  <g opacity="0.95">
    <rect x="1460" y="250" width="800" height="980" rx="36" fill="#0D1C31" fill-opacity="0.42" stroke="#7FC4F1" stroke-opacity="0.34"/>

    <rect x="1540" y="330" width="300" height="220" rx="22" fill="url(#card)" stroke="#8FD5FF" stroke-opacity="0.46"/>
    <rect x="1860" y="330" width="320" height="220" rx="22" fill="url(#card)" stroke="#8FD5FF" stroke-opacity="0.46"/>
    <rect x="1540" y="580" width="640" height="300" rx="24" fill="url(#card)" stroke="#8FD5FF" stroke-opacity="0.42"/>
    <rect x="1540" y="900" width="640" height="230" rx="24" fill="url(#card)" stroke="#8FD5FF" stroke-opacity="0.38"/>

    <circle cx="2040" cy="520" r="180" fill="#2ED4FF" fill-opacity="0.14" filter="url(#soft)"/>
  </g>

  <g stroke="#9CD9FF" stroke-opacity="0.62" stroke-width="2" fill="none">
    <path d="M1600 410H1770"/>
    <path d="M1600 450H1720"/>
    <path d="M1920 410H2120"/>
    <path d="M1920 450H2060"/>

    <path d="M1600 690H2100"/>
    <path d="M1600 730H2020"/>
    <path d="M1600 770H1960"/>

    <path d="M1600 990H2100"/>
    <path d="M1600 1030H2040"/>
  </g>

  <g stroke="#8FD4FF" stroke-opacity="0.72" stroke-width="2.6" fill="none" stroke-linecap="round">
    <path d="M1600 1120L1710 1050L1810 1065L1930 960L2050 980L2170 900"/>
  </g>

  <g stroke="url(#metric)" stroke-linecap="round" fill="none">
    <path d="M1360 1120C1540 1020 1710 1060 1880 940C2030 840 2180 860 2360 740" stroke-width="8"/>
    <path d="M1360 1180C1540 1110 1720 1130 1890 1040C2050 960 2200 980 2360 900" stroke-width="3" opacity="0.82"/>
  </g>

  <g fill="#E6F6FF">
    <circle cx="1360" cy="1120" r="7"/>
    <circle cx="1880" cy="940" r="7"/>
    <circle cx="2360" cy="740" r="7"/>
  </g>

  <rect x="0" y="0" width="1180" height="1440" fill="url(#leftFade)"/>
</svg>
