<svg xmlns="http://www.w3.org/2000/svg" width="512" height="512" viewBox="60 30 520 420">
<path d="M 246.18 359.05 C233.92,361.15 209.14,361.56 197.35,359.87 C164.39,355.13 135.03,339.11 116.38,315.68 C98.67,293.44 89.31,268.20 88.27,239.92 C86.77,198.82 97.42,170.32 124.37,143.37 C143.83,123.91 162.76,113.71 190.31,107.84 C204.92,104.73 233.04,104.72 247.60,107.82 C267.39,112.04 282.58,118.43 297.50,128.81 C306.83,135.31 325.00,153.32 325.00,156.08 C325.00,157.29 321.96,160.21 316.52,164.23 C311.86,167.68 308.03,170.79 308.02,171.15 C308.01,171.50 310.53,175.90 313.62,180.93 C318.49,188.85 319.52,189.97 321.37,189.40 C324.70,188.36 328.82,185.14 329.49,183.03 C330.15,180.96 338.35,173.49 352.50,162.08 C357.45,158.09 365.15,151.52 369.61,147.47 L 377.71 140.11 L 385.52 122.55 C389.81,112.90 393.14,104.85 392.91,104.68 C392.69,104.50 389.11,103.65 384.96,102.77 C374.43,100.56 363.12,96.00 352.00,89.47 C346.77,86.41 340.48,83.01 338.00,81.93 C327.79,77.44 324.86,75.48 316.67,67.68 C307.21,58.66 305.79,55.76 308.27,50.55 C310.65,45.58 315.67,43.66 324.90,44.22 C333.50,44.73 340.35,47.64 348.00,54.02 C372.03,74.05 429.67,87.00 468.61,81.13 C479.09,79.54 483.96,80.49 486.67,84.62 C488.86,87.96 487.93,96.23 484.63,102.73 C481.23,109.46 477.28,111.02 461.97,111.74 C447.65,112.40 433.05,110.75 424.38,107.49 C420.74,106.12 417.31,105.00 416.76,105.00 C416.21,105.00 418.74,108.16 422.39,112.03 C427.65,117.60 430.19,121.49 434.64,130.78 C437.73,137.23 441.65,144.26 443.34,146.41 C446.09,149.90 446.48,151.26 446.97,158.91 C447.27,163.64 447.87,168.06 448.31,168.75 C448.76,169.44 451.00,170.00 453.31,170.00 C466.65,170.01 487.13,174.50 497.31,179.65 C517.68,189.96 534.81,208.65 542.41,228.88 C563.25,284.37 532.74,344.66 477.24,357.68 C466.08,360.30 441.48,360.05 430.91,357.20 C380.72,343.71 351.37,292.14 364.48,240.47 C368.98,222.74 377.99,207.90 392.73,193.95 C404.03,183.26 417.14,176.13 431.34,172.95 C434.45,172.25 437.00,171.41 437.00,171.08 C437.00,166.98 430.33,142.62 427.88,137.76 C424.79,131.64 407.82,110.79 405.44,110.20 C404.74,110.02 403.08,113.15 401.45,117.70 C399.92,121.99 397.83,127.75 396.81,130.50 C395.55,133.90 392.12,138.63 386.13,145.27 C381.29,150.64 375.78,157.75 373.91,161.07 C368.54,170.58 367.49,171.59 358.57,175.91 C351.56,179.30 349.04,181.23 343.44,187.46 C337.87,193.65 335.68,195.33 330.61,197.27 C324.74,199.53 324.50,199.75 324.57,203.06 C324.61,204.95 325.45,210.27 326.44,214.89 C328.85,226.16 328.18,249.85 325.12,261.04 C322.22,271.66 317.68,282.24 312.38,290.74 L 307.83 298.04 L 310.17 300.05 C311.45,301.15 315.31,304.10 318.75,306.61 C322.19,309.12 325.00,311.92 325.01,312.84 C325.02,315.21 305.71,333.64 297.46,339.13 C282.28,349.22 265.45,355.76 246.18,359.05 ZM 200.14 335.39 C246.22,343.12 292.55,319.67 312.58,278.49 C330.84,240.96 323.89,196.18 295.10,165.79 C275.39,144.99 252.22,135.04 223.38,135.01 C202.45,134.99 183.97,139.59 162.40,150.19 C153.41,154.60 150.30,156.78 144.04,163.03 C130.90,176.15 122.35,191.34 117.82,209.63 C114.97,221.14 114.69,247.38 117.29,258.70 C119.67,269.02 123.43,279.28 127.47,286.52 C131.75,294.16 144.49,308.79 152.48,315.23 C163.89,324.43 183.04,332.53 200.14,335.39 ZM 438.51 335.38 C441.80,336.18 448.41,336.87 453.18,336.92 C495.57,337.32 527.23,304.18 524.69,262.04 C524.38,256.79 523.41,249.80 522.55,246.50 C518.96,232.80 508.93,217.47 497.00,207.47 C490.34,201.89 477.82,196.24 467.99,194.37 C452.39,191.41 435.24,194.46 421.00,202.72 C413.03,207.35 399.66,220.52 395.18,228.17 C385.49,244.70 382.82,266.64 388.20,285.50 C393.63,304.54 407.75,322.02 424.01,329.84 C428.69,332.09 435.21,334.59 438.51,335.38 ZM 327.43 72.21 C329.34,73.27 330.09,73.78 330.86,73.82 C331.48,73.85 332.12,73.58 333.36,73.04 C333.64,72.93 333.94,72.80 334.28,72.65 C341.39,69.68 341.57,65.08 334.96,55.18 C330.25,48.12 327.07,46.48 319.83,47.33 C310.97,48.38 308.67,53.03 313.55,60.07 C316.29,64.03 322.51,69.47 327.43,72.21 Z" fill="rgb(52,119,148)"/>
</svg>
