<svg xmlns="http://www.w3.org/2000/svg" width="1200" height="900" viewBox="0 0 1200 900" fill="none">
  <defs>
    <linearGradient id="bg-mcp" x1="0" y1="0" x2="1" y2="1">
      <stop offset="0%" stop-color="#e0f2fe"/>
      <stop offset="55%" stop-color="#eff6ff"/>
      <stop offset="100%" stop-color="#e2e8f0"/>
    </linearGradient>
    <linearGradient id="tile-mcp" x1="0" y1="0" x2="0" y2="1">
      <stop offset="0%" stop-color="#ffffff"/>
      <stop offset="100%" stop-color="#f1f5f9"/>
    </linearGradient>
  </defs>
  <rect width="1200" height="900" rx="48" fill="url(#bg-mcp)"/>
  <g opacity="0.85">
    <circle cx="220" cy="180" r="110" fill="#dbeafe"/>
    <circle cx="980" cy="260" r="140" fill="#bae6fd"/>
    <circle cx="900" cy="740" r="160" fill="#dbeafe"/>
  </g>
  <g fill="url(#tile-mcp)" stroke="#e2e8f0" stroke-width="2">
    <rect x="150" y="520" width="300" height="200" rx="22"/>
    <rect x="520" y="180" width="460" height="300" rx="30"/>
    <rect x="620" y="560" width="360" height="240" rx="24"/>
  </g>
  <g stroke="#1e293b" stroke-opacity="0.25" stroke-width="3">
    <path d="M360 620h200"/>
    <path d="M720 330h220"/>
    <path d="M760 680h180"/>
    <path d="M460 540l180-140"/>
    <path d="M680 520l120 80"/>
  </g>
  <g fill="#0f172a" opacity="0.8">
    <rect x="300" y="590" width="60" height="60" rx="16"/>
    <rect x="640" y="280" width="60" height="60" rx="16"/>
    <rect x="820" y="620" width="60" height="60" rx="16"/>
  </g>
  <g stroke="#38bdf8" stroke-width="3" stroke-linecap="round" opacity="0.5">
    <path d="M330 590l120-80"/>
    <path d="M670 340l140 70"/>
    <path d="M850 680l80-40"/>
  </g>
</svg>
