<svg xmlns="http://www.w3.org/2000/svg" width="1200" height="900" viewBox="0 0 1200 900" fill="none">
  <defs>
    <linearGradient id="bg-knowledge" x1="0" y1="0" x2="1" y2="1">
      <stop offset="0%" stop-color="#f1f5f9"/>
      <stop offset="55%" stop-color="#e2e8f0"/>
      <stop offset="100%" stop-color="#e0f2fe"/>
    </linearGradient>
    <linearGradient id="panel-knowledge" x1="0" y1="0" x2="0" y2="1">
      <stop offset="0%" stop-color="#ffffff"/>
      <stop offset="100%" stop-color="#f8fafc"/>
    </linearGradient>
  </defs>
  <rect width="1200" height="900" rx="48" fill="url(#bg-knowledge)"/>
  <g opacity="0.85">
    <circle cx="200" cy="220" r="120" fill="#e2e8f0"/>
    <circle cx="980" cy="200" r="140" fill="#dbeafe"/>
    <circle cx="880" cy="720" r="160" fill="#cffafe"/>
  </g>
  <g fill="url(#panel-knowledge)" stroke="#e2e8f0" stroke-width="2">
    <rect x="140" y="300" width="340" height="420" rx="26"/>
    <rect x="520" y="220" width="360" height="480" rx="26"/>
    <rect x="890" y="340" width="220" height="360" rx="22"/>
  </g>
  <g stroke="#0f172a" stroke-opacity="0.25" stroke-width="2">
    <path d="M190 360h240"/>
    <path d="M190 420h240"/>
    <path d="M190 480h200"/>
    <path d="M570 300h260"/>
    <path d="M570 360h260"/>
    <path d="M570 420h220"/>
    <path d="M930 400h140"/>
    <path d="M930 460h140"/>
    <path d="M930 520h120"/>
  </g>
  <g stroke="#0ea5e9" stroke-width="3" stroke-linecap="round" opacity="0.5">
    <path d="M300 700c60-80 180-80 240 0"/>
    <path d="M620 700c50-70 140-70 190 0"/>
  </g>
  <g fill="#0f172a" opacity="0.8">
    <circle cx="260" cy="650" r="16"/>
    <circle cx="420" cy="650" r="12"/>
    <circle cx="620" cy="650" r="16"/>
    <circle cx="760" cy="650" r="12"/>
  </g>
</svg>
