<svg xmlns="http://www.w3.org/2000/svg" width="1200" height="900" viewBox="0 0 1200 900" fill="none">
  <defs>
    <linearGradient id="bg-ops" x1="0" y1="0" x2="1" y2="1">
      <stop offset="0%" stop-color="#eef2ff"/>
      <stop offset="55%" stop-color="#e0f2fe"/>
      <stop offset="100%" stop-color="#f8fafc"/>
    </linearGradient>
    <linearGradient id="accent-ops" x1="0" y1="0" x2="1" y2="1">
      <stop offset="0%" stop-color="#2F6FED"/>
      <stop offset="100%" stop-color="#22D3EE"/>
    </linearGradient>
  </defs>
  <rect width="1200" height="900" rx="48" fill="url(#bg-ops)"/>
  <g opacity="0.3" stroke="#94a3b8" stroke-width="1">
    <path d="M120 150h960M120 250h960M120 350h960M120 450h960M120 550h960M120 650h960M120 750h960"/>
    <path d="M200 90v720M400 90v720M600 90v720M800 90v720M1000 90v720"/>
  </g>
  <g fill="#ffffff" stroke="#e2e8f0" stroke-width="2">
    <rect x="120" y="150" width="520" height="300" rx="28"/>
    <rect x="320" y="360" width="760" height="360" rx="32"/>
  </g>
  <g fill="#0f172a" opacity="0.78">
    <rect x="170" y="200" width="190" height="18" rx="9"/>
    <rect x="170" y="230" width="260" height="12" rx="6" opacity="0.5"/>
    <rect x="370" y="200" width="110" height="18" rx="9" opacity="0.35"/>
    <rect x="370" y="230" width="140" height="12" rx="6" opacity="0.25"/>
    <rect x="380" y="420" width="210" height="16" rx="8"/>
    <rect x="380" y="450" width="280" height="12" rx="6" opacity="0.5"/>
    <rect x="380" y="480" width="160" height="12" rx="6" opacity="0.35"/>
    <rect x="680" y="420" width="180" height="16" rx="8"/>
    <rect x="680" y="450" width="230" height="12" rx="6" opacity="0.5"/>
  </g>
  <g stroke="url(#accent-ops)" stroke-width="4" stroke-linecap="round" opacity="0.7">
    <path d="M180 560c80-60 160-60 240 0"/>
    <path d="M520 560c90-70 190-70 280 0"/>
    <path d="M830 560c70-50 150-50 220 0"/>
  </g>
  <g fill="#1a8e9b">
    <circle cx="260" cy="560" r="8"/>
    <circle cx="600" cy="560" r="8"/>
    <circle cx="930" cy="560" r="8"/>
  </g>
  <g stroke="#1c3f86" stroke-width="3" opacity="0.55">
    <path d="M220 300h160"/>
    <path d="M420 300h90"/>
    <path d="M420 330h120"/>
    <path d="M430 500h150"/>
    <path d="M720 500h120"/>
  </g>
</svg>
