<svg xmlns="http://www.w3.org/2000/svg" width="1200" height="1200" viewBox="0 0 1200 1200" fill="none">
  <defs>
    <linearGradient id="bg-case" x1="0" y1="0" x2="1" y2="1">
      <stop offset="0%" stop-color="#f8fafc"/>
      <stop offset="60%" stop-color="#e0f2fe"/>
      <stop offset="100%" stop-color="#eef2ff"/>
    </linearGradient>
    <linearGradient id="accent-case" x1="0" y1="0" x2="1" y2="1">
      <stop offset="0%" stop-color="#1A8E9B"/>
      <stop offset="100%" stop-color="#2F6FED"/>
    </linearGradient>
  </defs>
  <rect width="1200" height="1200" rx="72" fill="url(#bg-case)"/>
  <g opacity="0.25">
    <circle cx="260" cy="260" r="170" fill="#dbeafe"/>
    <circle cx="940" cy="260" r="190" fill="#cffafe"/>
    <circle cx="940" cy="960" r="210" fill="#e0e7ff"/>
  </g>
  <g fill="#ffffff" stroke="#e2e8f0" stroke-width="2">
    <rect x="180" y="320" width="380" height="520" rx="32"/>
    <rect x="620" y="360" width="400" height="480" rx="32"/>
  </g>
  <g fill="url(#accent-case)" opacity="0.9">
    <rect x="230" y="400" width="220" height="12" rx="6"/>
    <rect x="230" y="440" width="180" height="12" rx="6"/>
    <rect x="230" y="480" width="200" height="12" rx="6"/>
  </g>
  <g fill="#1c3f86">
    <circle cx="260" cy="620" r="14"/>
    <circle cx="260" cy="680" r="14"/>
    <circle cx="260" cy="740" r="14"/>
  </g>
  <g stroke="#1c3f86" stroke-width="4" stroke-linecap="round">
    <path d="M252 620l6 8 14-18"/>
    <path d="M252 680l6 8 14-18"/>
    <path d="M252 740l6 8 14-18"/>
  </g>
  <g fill="#0f172a" opacity="0.6">
    <rect x="290" y="612" width="200" height="12" rx="6"/>
    <rect x="290" y="672" width="180" height="12" rx="6"/>
    <rect x="290" y="732" width="210" height="12" rx="6"/>
  </g>
  <g stroke="url(#accent-case)" stroke-width="6" stroke-linecap="round" opacity="0.9">
    <path d="M690 720l70-80 60 40 100-130"/>
  </g>
  <g fill="#1c3f86">
    <circle cx="690" cy="720" r="10"/>
    <circle cx="760" cy="640" r="10"/>
    <circle cx="820" cy="680" r="10"/>
    <circle cx="920" cy="550" r="10"/>
  </g>
</svg>
