<svg xmlns="http://www.w3.org/2000/svg" width="1200" height="1200" viewBox="0 0 1200 1200" fill="none">
  <defs>
    <linearGradient id="bg-mcp-panel" x1="0" y1="0" x2="1" y2="1">
      <stop offset="0%" stop-color="#eef2ff"/>
      <stop offset="55%" stop-color="#e0f2fe"/>
      <stop offset="100%" stop-color="#f8fafc"/>
    </linearGradient>
    <linearGradient id="accent-mcp-panel" x1="0" y1="0" x2="1" y2="1">
      <stop offset="0%" stop-color="#22D3EE"/>
      <stop offset="100%" stop-color="#2F6FED"/>
    </linearGradient>
  </defs>
  <rect width="1200" height="1200" rx="72" fill="url(#bg-mcp-panel)"/>
  <g opacity="0.25">
    <circle cx="250" cy="260" r="170" fill="#dbeafe"/>
    <circle cx="940" cy="260" r="180" fill="#cffafe"/>
    <circle cx="960" cy="960" r="200" fill="#e0e7ff"/>
  </g>
  <g fill="#ffffff" stroke="#e2e8f0" stroke-width="2">
    <rect x="160" y="520" width="320" height="220" rx="26"/>
    <rect x="520" y="250" width="520" height="300" rx="32"/>
    <rect x="610" y="620" width="420" height="260" rx="30"/>
  </g>
  <g stroke="url(#accent-mcp-panel)" stroke-width="4" stroke-linecap="round" opacity="0.75">
    <path d="M360 560l200-150"/>
    <path d="M760 520l160 140"/>
    <path d="M520 700l150-100"/>
  </g>
  <g fill="#1c3f86">
    <rect x="260" y="600" width="90" height="90" rx="20"/>
    <rect x="700" y="320" width="90" height="90" rx="20"/>
    <rect x="860" y="700" width="90" height="90" rx="20"/>
  </g>
  <g fill="#22d3ee" opacity="0.9">
    <circle cx="305" cy="645" r="10"/>
    <circle cx="745" cy="365" r="10"/>
    <circle cx="905" cy="745" r="10"/>
  </g>
  <g fill="#0f172a" opacity="0.65">
    <rect x="210" y="560" width="210" height="12" rx="6"/>
    <rect x="560" y="320" width="260" height="12" rx="6"/>
    <rect x="660" y="660" width="240" height="12" rx="6"/>
  </g>
</svg>
