<svg xmlns="http://www.w3.org/2000/svg" width="1200" height="1200" viewBox="0 0 1200 1200" fill="none">
  <defs>
    <linearGradient id="bg-updates" x1="0" y1="0" x2="1" y2="1">
      <stop offset="0%" stop-color="#eef2ff"/>
      <stop offset="60%" stop-color="#e0f2fe"/>
      <stop offset="100%" stop-color="#f8fafc"/>
    </linearGradient>
    <linearGradient id="accent-updates" x1="0" y1="0" x2="1" y2="1">
      <stop offset="0%" stop-color="#22D3EE"/>
      <stop offset="100%" stop-color="#1C3F86"/>
    </linearGradient>
  </defs>
  <rect width="1200" height="1200" rx="72" fill="url(#bg-updates)"/>
  <g opacity="0.25">
    <circle cx="260" cy="260" r="170" fill="#dbeafe"/>
    <circle cx="940" cy="260" r="190" fill="#cffafe"/>
    <circle cx="940" cy="960" r="210" fill="#e0e7ff"/>
  </g>
  <g stroke="url(#accent-updates)" stroke-width="6" stroke-linecap="round" opacity="0.85">
    <path d="M240 420h720"/>
    <path d="M240 600h720"/>
    <path d="M240 780h720"/>
  </g>
  <g fill="#1c3f86">
    <circle cx="320" cy="420" r="20"/>
    <circle cx="600" cy="600" r="20"/>
    <circle cx="860" cy="780" r="20"/>
  </g>
  <g fill="#ffffff" stroke="#e2e8f0" stroke-width="2">
    <rect x="380" y="330" width="360" height="160" rx="26"/>
    <rect x="660" y="520" width="360" height="160" rx="26"/>
    <rect x="260" y="700" width="360" height="160" rx="26"/>
  </g>
  <g fill="#0f172a" opacity="0.7">
    <rect x="420" y="380" width="220" height="12" rx="6"/>
    <rect x="420" y="410" width="180" height="10" rx="5"/>
    <rect x="700" y="570" width="220" height="12" rx="6"/>
    <rect x="700" y="600" width="180" height="10" rx="5"/>
    <rect x="300" y="750" width="220" height="12" rx="6"/>
    <rect x="300" y="780" width="180" height="10" rx="5"/>
  </g>
</svg>
