<svg xmlns="http://www.w3.org/2000/svg" width="1200" height="1200" viewBox="0 0 1200 1200" fill="none">
  <defs>
    <linearGradient id="bg-podcast" x1="0" y1="0" x2="1" y2="1">
      <stop offset="0%" stop-color="#ecfeff"/>
      <stop offset="60%" stop-color="#e0f2fe"/>
      <stop offset="100%" stop-color="#eef2ff"/>
    </linearGradient>
    <linearGradient id="accent-podcast" x1="0" y1="0" x2="1" y2="1">
      <stop offset="0%" stop-color="#22D3EE"/>
      <stop offset="100%" stop-color="#2F6FED"/>
    </linearGradient>
  </defs>
  <rect width="1200" height="1200" rx="72" fill="url(#bg-podcast)"/>
  <g opacity="0.25">
    <circle cx="260" cy="260" r="170" fill="#dbeafe"/>
    <circle cx="940" cy="260" r="190" fill="#cffafe"/>
    <circle cx="940" cy="960" r="210" fill="#e0e7ff"/>
  </g>
  <g fill="#ffffff" stroke="#e2e8f0" stroke-width="2">
    <rect x="260" y="340" width="680" height="520" rx="40"/>
  </g>
  <g stroke="url(#accent-podcast)" stroke-width="6" stroke-linecap="round" opacity="0.85">
    <path d="M340 600h120"/>
    <path d="M500 540h80"/>
    <path d="M500 660h80"/>
    <path d="M620 500h60"/>
    <path d="M620 700h60"/>
    <path d="M720 540h80"/>
    <path d="M720 660h80"/>
    <path d="M840 600h120"/>
  </g>
  <g fill="#1c3f86" opacity="0.85">
    <rect x="560" y="520" width="80" height="160" rx="40"/>
    <rect x="585" y="690" width="30" height="70" rx="15"/>
    <rect x="520" y="750" width="160" height="12" rx="6"/>
  </g>
</svg>
