<svg xmlns="http://www.w3.org/2000/svg" width="1200" height="1200" viewBox="0 0 1200 1200" fill="none">
  <defs>
    <linearGradient id="bg-solutions" x1="0" y1="0" x2="1" y2="1">
      <stop offset="0%" stop-color="#eef2ff"/>
      <stop offset="60%" stop-color="#e0f2fe"/>
      <stop offset="100%" stop-color="#f8fafc"/>
    </linearGradient>
    <linearGradient id="accent-solutions" x1="0" y1="0" x2="1" y2="1">
      <stop offset="0%" stop-color="#1A8E9B"/>
      <stop offset="100%" stop-color="#2F6FED"/>
    </linearGradient>
  </defs>
  <rect width="1200" height="1200" rx="72" fill="url(#bg-solutions)"/>
  <g opacity="0.25">
    <circle cx="250" cy="260" r="170" fill="#dbeafe"/>
    <circle cx="940" cy="260" r="190" fill="#cffafe"/>
    <circle cx="930" cy="960" r="210" fill="#e0e7ff"/>
  </g>
  <g fill="#ffffff" stroke="#e2e8f0" stroke-width="2">
    <rect x="140" y="300" width="320" height="220" rx="26"/>
    <rect x="440" y="520" width="320" height="220" rx="26"/>
    <rect x="740" y="300" width="320" height="220" rx="26"/>
  </g>
  <g stroke="url(#accent-solutions)" stroke-width="5" stroke-linecap="round" opacity="0.8">
    <path d="M470 410h90"/>
    <path d="M640 520l70-70"/>
  </g>
  <g fill="#1c3f86">
    <circle cx="300" cy="380" r="28"/>
    <circle cx="600" cy="600" r="28"/>
    <circle cx="900" cy="380" r="28"/>
  </g>
  <g fill="#22d3ee" opacity="0.9">
    <rect x="240" y="430" width="160" height="12" rx="6"/>
    <rect x="540" y="650" width="160" height="12" rx="6"/>
    <rect x="840" y="430" width="160" height="12" rx="6"/>
  </g>
  <g fill="#0f172a" opacity="0.6">
    <rect x="220" y="460" width="200" height="10" rx="5"/>
    <rect x="520" y="680" width="200" height="10" rx="5"/>
    <rect x="820" y="460" width="200" height="10" rx="5"/>
  </g>
</svg>
