<svg xmlns="http://www.w3.org/2000/svg" width="1200" height="1200" viewBox="0 0 1200 1200" fill="none">
  <defs>
    <linearGradient id="bg-platform" x1="0" y1="0" x2="1" y2="1">
      <stop offset="0%" stop-color="#eef2ff"/>
      <stop offset="60%" stop-color="#e0f2fe"/>
      <stop offset="100%" stop-color="#f8fafc"/>
    </linearGradient>
    <linearGradient id="accent-platform" x1="0" y1="0" x2="1" y2="1">
      <stop offset="0%" stop-color="#2F6FED"/>
      <stop offset="100%" stop-color="#22D3EE"/>
    </linearGradient>
  </defs>
  <rect width="1200" height="1200" rx="72" fill="url(#bg-platform)"/>
  <g opacity="0.25">
    <circle cx="240" cy="240" r="160" fill="#dbeafe"/>
    <circle cx="940" cy="260" r="180" fill="#cffafe"/>
    <circle cx="940" cy="960" r="200" fill="#e0e7ff"/>
  </g>
  <g fill="#ffffff" stroke="#e2e8f0" stroke-width="2">
    <rect x="140" y="260" width="920" height="560" rx="36"/>
    <rect x="210" y="340" width="360" height="180" rx="24"/>
    <rect x="590" y="340" width="360" height="180" rx="24"/>
    <rect x="210" y="550" width="740" height="200" rx="28"/>
  </g>
  <g fill="#0f172a" opacity="0.8">
    <rect x="250" y="380" width="220" height="16" rx="8"/>
    <rect x="250" y="410" width="180" height="12" rx="6" opacity="0.5"/>
    <rect x="630" y="380" width="220" height="16" rx="8"/>
    <rect x="630" y="410" width="180" height="12" rx="6" opacity="0.5"/>
    <rect x="250" y="600" width="300" height="14" rx="7"/>
    <rect x="250" y="630" width="420" height="12" rx="6" opacity="0.5"/>
    <rect x="250" y="660" width="280" height="12" rx="6" opacity="0.35"/>
  </g>
  <g stroke="url(#accent-platform)" stroke-width="4" stroke-linecap="round" opacity="0.7">
    <path d="M650 600h220"/>
    <path d="M650 635h170"/>
    <path d="M650 670h200"/>
  </g>
  <g fill="#1c3f86">
    <circle cx="920" cy="600" r="10"/>
    <circle cx="900" cy="635" r="10"/>
    <circle cx="940" cy="670" r="10"/>
  </g>
</svg>
