<svg xmlns="http://www.w3.org/2000/svg" width="1200" height="1200" viewBox="0 0 1200 1200" fill="none">
  <defs>
    <linearGradient id="bg-books" x1="0" y1="0" x2="1" y2="1">
      <stop offset="0%" stop-color="#f8fafc"/>
      <stop offset="60%" stop-color="#e2e8f0"/>
      <stop offset="100%" stop-color="#e0f2fe"/>
    </linearGradient>
    <linearGradient id="accent-books" x1="0" y1="0" x2="1" y2="1">
      <stop offset="0%" stop-color="#2F6FED"/>
      <stop offset="100%" stop-color="#22D3EE"/>
    </linearGradient>
  </defs>
  <rect width="1200" height="1200" rx="72" fill="url(#bg-books)"/>
  <g opacity="0.25">
    <circle cx="260" cy="260" r="170" fill="#dbeafe"/>
    <circle cx="940" cy="260" r="190" fill="#cffafe"/>
    <circle cx="940" cy="960" r="210" fill="#e0e7ff"/>
  </g>
  <g fill="#ffffff" stroke="#e2e8f0" stroke-width="2">
    <rect x="200" y="360" width="360" height="520" rx="28"/>
    <rect x="520" y="300" width="420" height="580" rx="30"/>
    <rect x="900" y="380" width="120" height="500" rx="22"/>
  </g>
  <g stroke="url(#accent-books)" stroke-width="6" stroke-linecap="round" opacity="0.85">
    <path d="M260 430h240"/>
    <path d="M260 480h220"/>
    <path d="M260 530h200"/>
    <path d="M580 380h300"/>
    <path d="M580 430h260"/>
    <path d="M580 480h240"/>
  </g>
  <g fill="#1c3f86" opacity="0.8">
    <rect x="260" y="640" width="200" height="12" rx="6"/>
    <rect x="580" y="620" width="260" height="12" rx="6"/>
  </g>
</svg>
